<?xml version="1.0" encoding="UTF-8"?>
<svg version="1.1" viewBox="0 0 640 800" xmlns="http://www.w3.org/2000/svg">
<defs>
<filter id="e" x="-100%" y="-100%" width="400%" height="400%" color-interpolation-filters="sRGB">
<feGaussianBlur in="SourceGraphic" result="blur" stdDeviation="8.5 0"/>
<feDropShadow x="0%" y="0%" width="100%" height="100%" dx="10" dy="10" flood-color="#daccf6" in="blur" stdDeviation="12.307692307692308"/>
</filter>
<filter id="d" x="-100%" y="-100%" width="400%" height="400%" color-interpolation-filters="sRGB">
<feGaussianBlur in="SourceGraphic" result="blur" stdDeviation="8.5 0"/>
<feDropShadow x="0%" y="0%" width="100%" height="100%" dx="-10" dy="-10" flood-color="#daccf6" in="blur" stdDeviation="12.307692307692308"/>
</filter>
<linearGradient id="c" x1="50%" x2="50%" y2="100%" gradientTransform="rotate(132 .5 .5)">
<stop stop-color="#fdf5d3" offset=".1"/>
<stop stop-color="#daccf6" offset=".9"/>
</linearGradient>
<linearGradient id="b" x1="50%" x2="50%" y2="100%" gradientTransform="rotate(18 .5 .5)">
<stop stop-color="#fdf5d3" offset=".25"/>
<stop stop-color="#daccf6" offset="1"/>
</linearGradient>
<linearGradient id="a" x1="50%" x2="50%" y2="100%" gradientTransform="rotate(-66 .5 .5)">
<stop stop-color="#fdf5d3" offset="0"/>
<stop stop-color="#daccf6" offset=".75"/>
</linearGradient>
</defs>
<path d="m-65.5-76.12q11.61 1.4 23.22 2.59 11.61 0.92 23.23 1.53 11.61 0.29 23.21 0.23 11.61-0.4 23.23-1.12 11.61-1.01 23.22-2.27 11.61-1.46 23.23-3.07 11.61-1.67 23.22-3.35 11.61-1.61 23.23-3.09 11.61-1.29 23.22-2.33 11.62-0.76 23.23-1.19 11.61-0.1 23.22 0.15 11.62 0.58 23.23 1.46 11.61 1.16 23.22 2.54 11.62 1.55 23.23 3.2 11.61 1.68 23.22 3.33 11.62 1.55 23.23 2.93 11.61 1.16 23.22 2.05 11.62 0.58 23.23 0.83 11.61-0.1 23.23-0.53 11.61-0.75 23.22-1.79 11.61-1.29 23.23-2.77 11.61-1.61 23.22-3.29t23.23-3.28q11.61-1.46 23.22-2.73 11.61-1.01 23.23-1.73 11.61-0.4 23.22-0.46 11.61 0.29 23.23 0.9 11.61 0.92 23.22 2.1 11.62 1.4 23.23 2.96 11.61 1.66 23.22 3.34 11.62 1.65 23.23 3.18 11.61 1.36 23.22 2.49 1.8 15.26 5.41 30.51 5.16 15.26 11.48 30.52 7.01 15.25 14.2 30.5 6.84 15.26 12.82 30.52 4.68 15.25 7.71 30.51 1.16 15.26 0.36 30.51-2.7 15.26-7.09 30.52-5.77 15.25-12.48 30.51-7.17 15.26-14.26 30.51-6.48 15.26-11.89 30.52-3.92 15.25-6.07 30.51-0.22 15.26 1.51 30.51 3.54 15.26 8.65 30.52 6.28 15.25 13.28 30.51 7.19 15.26 14.05 30.51 6.02 15.26 10.76 30.52 3.09 15.25 4.33 30.51-0.72 15.26-3.35 30.52-4.33 15.25-10.06 30.51-6.68 15.26-13.84 30.51-7.1 15.26-13.62 30.52-5.45 15.25-9.44 30.51-2.22 15.26-2.51 30.51 1.65 15.26 5.13 30.52 5.05 15.25 11.29 30.51 6.98 15.26 14.18 30.51 6.88 15.26 12.94 30.52 4.79 15.25 7.96 30.51 1.31 15.26 0.66 30.51-2.56 15.26-6.83 30.52-5.68 15.25-12.34 30.51-7.15 15.26-14.26 30.51-11.89-3.91-23.77-8.61-11.89-5.3-23.78-10.98-11.89-5.83-23.77-11.56-11.89-5.4-23.78-10.24-11.89-4.1-23.78-7.27-11.88-2.11-23.77-3.09-11.89 0.2-23.78 1.58-11.88 2.49-23.77 5.99-11.89 4.38-23.78 9.44-11.89 5.54-23.77 11.33-11.89 5.8-23.78 11.37-11.89 5.12-23.77 9.58-11.89 3.6-23.78 6.2-11.89 1.49-23.77 1.81-11.89-0.85-23.78-2.86-11.89-3.06-23.78-7.07-11.88-4.78-23.77-10.13-11.89-5.71-23.78-11.53-11.88-5.71-23.77-11.06-11.89-4.77-23.78-8.78-11.89-3.06-23.77-5.06-11.89-0.85-23.78-0.52-11.89 1.5-23.77 4.11-11.89 3.61-23.78 8.06-11.89 5.12-23.77 10.7-11.89 5.8-23.78 11.59-11.89 5.54-23.78 10.6-11.88 4.37-23.77 7.87-11.89 2.48-23.78 3.85-11.87 0.2-23.76-0.78-11.89-2.13-23.78-5.3-11.88-4.1-23.77-8.95 0.41-15.15 0.82-30.3 0.38-15.14 0.7-30.29 0.25-15.15 0.4-30.3 0.03-15.15-0.04-30.3-0.18-15.15-0.46-30.3-0.35-15.15-0.74-30.29-0.41-15.15-0.82-30.3-0.35-15.15-0.64-30.3-0.2-15.15-0.3-30.3 0.02-15.15 0.15-30.3 0.23-15.15 0.54-30.29 0.37-15.15 0.78-30.3t0.79-30.3q0.33-15.15 0.58-30.3 0.15-15.15 0.19-30.3-0.07-15.14-0.24-30.29-0.28-15.15-0.62-30.3-0.4-15.15-0.81-30.3-0.4-15.15-0.76-30.3-0.29-15.15-0.5-30.29-0.1-15.15-0.08-30.3 0.12-15.15 0.34-30.3 0.31-15.15 0.69-30.3 0.4-15.15 0.82-30.3 0.38-15.14 0.71-30.29 0.25-15.15 0.41-30.3 0.04-15.15-0.02-30.3-0.18-15.15-0.44-30.3-0.35-15.15-0.74-30.29-0.41-15.14-0.82-30.29-0.36-15.15-0.65-30.3-0.21-15.15-0.31-30.3" fill="url(#c)"/>
<path d="m-65.5-76.12q0.1 15.15 0.31 30.3 0.29 15.15 0.65 30.3 0.41 15.15 0.82 30.29 0.39 15.14 0.74 30.29 0.26 15.15 0.44 30.3 0.06 15.15 0.02 30.3-0.16 15.15-0.41 30.3-0.33 15.15-0.71 30.29-0.42 15.15-0.82 30.3-0.38 15.15-0.69 30.3-0.22 15.15-0.34 30.3-0.02 15.15 0.08 30.3 0.21 15.14 0.5 30.29 0.36 15.15 0.76 30.3 0.41 15.15 0.81 30.3 0.34 15.15 0.62 30.3 16.43 4.06 32.86 7.2 16.44 1.98 32.86 2.66 6.78-3.39 21.9-14.02 9.79-7.71 19.49-15.85 9.6-8.5 19.11-17.29 9.41-9 18.74-18.13 9.25-9.18 18.42-18.32 9.12-9.03 18.19-17.86 9.04-8.56 18.06-16.8 9.02-7.85 18.05-15.29 9.07-6.99 18.2-13.52 9.19-6.07 18.47-11.69 9.39-5.2 18.9-10.01 9.64-4.47 19.43-8.67 9.94-3.97 20.05-7.79 10.29-3.75 20.75-7.49 10.63-3.81 21.44-7.75 10.98-4.14 22.12-8.54 11.3-4.7 22.73-9.74 11.54-5.42 23.2-11.22 11.73-6.19 23.52-12.77 11.83-6.95 23.66-14.24 11.82-7.6 23.58-15.46 11.7-8.07 23.29-16.29 11.46-8.32 22.77-16.67 11.13-8.33 22.05-16.56 10.71-8.1 21.17-16 10.21-7.67 20.15-15.07 9.67-7.1 19.06-13.89 9.11-6.47 17.95-12.61 8.57-5.83 16.88-11.37 8.08-5.28 15.93-10.32 7.66-4.86 15.15-9.57 7.35-4.61 14.59-9.17-7.64-17.45-14.51-34.89-5.41-17.45-8.82-34.89-1.07-17.45 0.31-34.89 3.69-17.45 9.32-34.89-12.18-1.43-24.36-2.75-12.18-1.15-24.36-2.09-12.18-0.67-24.36-1.06-12.18-0.08-24.36 0.15-12.18 0.52-24.36 1.32-12.18 1.05-24.36 2.28-12.18 1.38-24.36 2.84-12.18 1.47-24.36 2.89-12.18 1.31-24.36 2.45-12.18 0.92-24.36 1.58-12.18 0.37-24.36 0.44-12.18-0.25-24.36-0.79-12.18-0.82-24.36-1.87-12.18-1.25-24.36-2.63-12.18-1.46-24.36-2.94-12.18-1.41-24.36-2.72-12.18-1.12-24.36-2.03-12.18-0.64-24.36-1-12.18-0.04-24.36 0.22-12.18 0.56-24.36 1.4-12.18 1.06-24.36 2.32-12.18 1.39-24.36 2.85-12.18 1.47-24.36 2.88-12.18 1.3-24.36 2.41-12.18 0.9-24.36 1.52-12.18 0.34-24.35 0.36-12.18-0.28-24.36-0.86-12.18-0.84-24.36-1.92-12.18-1.27-24.36-2.67-12.18-1.46-24.36-2.93-12.18-1.41-24.36-2.69-12.69 2.54-2.13 14.58 11 8.61 21.93 17.4 10.9 8.92 21.78 17.93 10.87 9.03 21.77 18.04" fill="url(#b)" filter="url(#e)"/>
<path d="m660.39 397.26q16.43 5.01 32.87 9.84 16.43 4.32 32.87 7.8 3.09 15.25 4.33 30.51-0.72 15.26-3.35 30.52-4.33 15.25-10.06 30.51-6.68 15.26-13.84 30.51-7.1 15.26-13.62 30.52-5.45 15.25-9.44 30.51-2.22 15.26-2.51 30.51 1.65 15.26 5.13 30.52 5.05 15.25 11.29 30.51 6.98 15.26 14.18 30.51 6.88 15.26 12.94 30.52 4.79 15.25 7.96 30.51 1.31 15.26 0.66 30.51-2.56 15.26-6.83 30.52-5.68 15.25-12.34 30.51-7.15 15.26-14.26 30.51-10.91-3.55-21.82-7.79-10.92-4.77-21.83-9.91-10.91-5.33-21.82-10.65-10.92-5.15-21.83-9.94-10.91-4.26-21.82-7.84-10.92-2.78-21.83-4.67-10.91-0.92-21.82-0.85-10.92 1.06-21.83 3.08-10.91 2.9-21.82 6.58-10.92 4.35-21.83 9.19-10.91 5.19-21.82 10.53-10.92 5.31-21.83 10.4-10.91 4.71-21.83 8.86-10.91 3.45-21.82 6.09-10.91 1.72-21.83 2.47-10.91-0.24-21.82-1.47-10.91-2.18-21.83-5.22-10.91-3.81-21.82-8.26-10.91-4.91-21.83-10.14-10.91-5.34-21.82-10.63-10.91-5.04-21.83-9.66-10.91-4.04-21.82-7.36-10.91-2.48-21.83-4.04-10.91-0.58-21.82-0.17-10.91 1.4-21.83 3.74-10.91 3.18-21.82 7.11-10.91 4.54-21.83 9.52-10.91 5.26-21.82 10.61-10.91 5.26-21.83 10.24-10.91 4.53-21.82 8.45-10.91 3.18-21.83 5.51-16.05-3.51-20.53-18.62 0.64-10.22 1.24-20.43 0.56-10.21 1.05-20.42 0.82-15.32 1.75-20.42 13.03-6.99 26.04-15.13 12.96-9.22 25.87-19.36 12.84-10.87 25.6-22.28 12.65-11.7 25.19-23.45 12.42-11.54 24.71-22.66 12.16-10.46 24.18-20.1 11.88-8.68 23.62-16.28 11.61-6.49 23.1-11.86 11.38-4.3 22.66-7.64 11.2-2.52 22.33-4.38 11.09-1.41 22.16-2.6 11.06-1.19 22.15-2.6 11.14-1.85 22.36-4.34 11.31-3.27 22.75-7.46 11.59-5.19 23.34-11.41 11.95-7.24 24.1-15.45 12.37-9.08 24.97-18.89 12.85-10.37 25.94-21.12 13.35-10.91 26.94-21.79 13.83-10.63 27.89-20.82 14.27-9.58 28.75-18.41 14.65-7.97 29.46-15.02 14.93-6.1 29.96-11.28 15.08-4.31 30.19-7.84 15.11-2.9 30.16-5.31 14.97-2.1 29.81-4.1 14.68-2.06 29.17-4.39 14.25-2.76 28.24-6.1 13.7-4.04 27.08-8.88 13.04-5.68 25.73-12.22 12.31-7.38 24.25-15.53 1.96-12.11-18.35-10.72-10.27 0.72-20.55 0.91-10.27-0.34-20.54-1.2-10.27-1.36-20.54-3.17-10.27-2.22-20.55-4.78-10.27-2.82-20.54-5.84-10.27-3.11-20.54-6.24" fill="url(#a)" filter="url(#d)"/>
</svg>
